{
	"asset":{
		"generator":"Khronos glTF Blender I/O v3.6.27",
		"version":"2.0"
	},
	"scene":0,
	"scenes":[
		{
			"name":"Scene",
			"nodes":[
				0,
				1,
				2,
				3,
				4,
				5
			]
		}
	],
	"nodes":[
		{
			"mesh":0,
			"name":"Cube",
			"scale":[
				1,
				0.37470149993896484,
				0.03447501361370087
			],
			"translation":[
				0.4390292167663574,
				3.371084451675415,
				-4.26071310043335
			]
		},
		{
			"mesh":1,
			"name":"Text",
			"rotation":[
				0.7071068286895752,
				0,
				0,
				0.7071068286895752
			],
			"scale":[
				0.3641777038574219,
				0.3641777038574219,
				0.3641777038574219
			],
			"translation":[
				-0.2886350750923157,
				3.242877244949341,
				-4.207189559936523
			]
		},
		{
			"mesh":2,
			"name":"Cube.007",
			"scale":[
				1,
				0.37470149993896484,
				0.03447501361370087
			],
			"translation":[
				0.4390292167663574,
				2.317880630493164,
				-4.26071310043335
			]
		},
		{
			"mesh":3,
			"name":"Text.001",
			"rotation":[
				0.7071068286895752,
				0,
				0,
				0.7071068286895752
			],
			"scale":[
				0.3641777038574219,
				0.3641777038574219,
				0.3641777038574219
			],
			"translation":[
				-0.05406300723552704,
				2.18967342376709,
				-4.207189559936523
			]
		},
		{
			"mesh":4,
			"name":"Cube.008",
			"scale":[
				1,
				0.37470149993896484,
				0.03447501361370087
			],
			"translation":[
				0.4390292167663574,
				1.2947206497192383,
				-4.26071310043335
			]
		},
		{
			"mesh":5,
			"name":"Text.002",
			"rotation":[
				0.7071068286895752,
				0,
				0,
				0.7071068286895752
			],
			"scale":[
				0.3641777038574219,
				0.3641777038574219,
				0.3641777038574219
			],
			"translation":[
				-0.01583912968635559,
				1.166513442993164,
				-4.207189559936523
			]
		}
	],
	"materials":[
		{
			"doubleSided":true,
			"name":"Material.002",
			"pbrMetallicRoughness":{
				"baseColorFactor":[
					0.1877848505973816,
					0.8000000715255737,
					0,
					1
				],
				"metallicFactor":0,
				"roughnessFactor":0.5
			}
		}
	],
	"meshes":[
		{
			"name":"Cube",
			"primitives":[
				{
					"attributes":{
						"POSITION":0,
						"NORMAL":1,
						"TEXCOORD_0":2
					},
					"indices":3,
					"material":0
				}
			]
		},
		{
			"name":"Text",
			"primitives":[
				{
					"attributes":{
						"POSITION":4,
						"NORMAL":5,
						"TEXCOORD_0":6
					},
					"indices":7
				}
			]
		},
		{
			"name":"Cube.001",
			"primitives":[
				{
					"attributes":{
						"POSITION":8,
						"NORMAL":9,
						"TEXCOORD_0":10
					},
					"indices":3,
					"material":0
				}
			]
		},
		{
			"name":"Text.001",
			"primitives":[
				{
					"attributes":{
						"POSITION":11,
						"NORMAL":12,
						"TEXCOORD_0":13
					},
					"indices":14
				}
			]
		},
		{
			"name":"Cube.002",
			"primitives":[
				{
					"attributes":{
						"POSITION":15,
						"NORMAL":16,
						"TEXCOORD_0":17
					},
					"indices":3,
					"material":0
				}
			]
		},
		{
			"name":"Text.002",
			"primitives":[
				{
					"attributes":{
						"POSITION":18,
						"NORMAL":19,
						"TEXCOORD_0":20
					},
					"indices":21
				}
			]
		}
	],
	"accessors":[
		{
			"bufferView":0,
			"componentType":5126,
			"count":24,
			"max":[
				1,
				1,
				1
			],
			"min":[
				-1,
				-1,
				-9.766542434692383
			],
			"type":"VEC3"
		},
		{
			"bufferView":1,
			"componentType":5126,
			"count":24,
			"type":"VEC3"
		},
		{
			"bufferView":2,
			"componentType":5126,
			"count":24,
			"type":"VEC2"
		},
		{
			"bufferView":3,
			"componentType":5123,
			"count":36,
			"type":"SCALAR"
		},
		{
			"bufferView":4,
			"componentType":5126,
			"count":229,
			"max":[
				3.7730002403259277,
				0,
				0.009000000543892384
			],
			"min":[
				0.07700000703334808,
				0,
				-0.6910000443458557
			],
			"type":"VEC3"
		},
		{
			"bufferView":5,
			"componentType":5126,
			"count":229,
			"type":"VEC3"
		},
		{
			"bufferView":6,
			"componentType":5126,
			"count":229,
			"type":"VEC2"
		},
		{
			"bufferView":7,
			"componentType":5123,
			"count":669,
			"type":"SCALAR"
		},
		{
			"bufferView":8,
			"componentType":5126,
			"count":24,
			"max":[
				1,
				1,
				1
			],
			"min":[
				-1,
				-1,
				-10.47337818145752
			],
			"type":"VEC3"
		},
		{
			"bufferView":9,
			"componentType":5126,
			"count":24,
			"type":"VEC3"
		},
		{
			"bufferView":10,
			"componentType":5126,
			"count":24,
			"type":"VEC2"
		},
		{
			"bufferView":11,
			"componentType":5126,
			"count":249,
			"max":[
				2.7939999103546143,
				0,
				0.009000000543892384
			],
			"min":[
				0.04000000283122063,
				0,
				-0.6910000443458557
			],
			"type":"VEC3"
		},
		{
			"bufferView":12,
			"componentType":5126,
			"count":249,
			"type":"VEC3"
		},
		{
			"bufferView":13,
			"componentType":5126,
			"count":249,
			"type":"VEC2"
		},
		{
			"bufferView":14,
			"componentType":5123,
			"count":723,
			"type":"SCALAR"
		},
		{
			"bufferView":15,
			"componentType":5126,
			"count":24,
			"max":[
				1,
				1,
				1
			],
			"min":[
				-1,
				-1,
				-10.47337818145752
			],
			"type":"VEC3"
		},
		{
			"bufferView":16,
			"componentType":5126,
			"count":24,
			"type":"VEC3"
		},
		{
			"bufferView":17,
			"componentType":5126,
			"count":24,
			"type":"VEC2"
		},
		{
			"bufferView":18,
			"componentType":5126,
			"count":313,
			"max":[
				2.55400013923645,
				0,
				0.009000000543892384
			],
			"min":[
				0.05000000074505806,
				0,
				-0.6910000443458557
			],
			"type":"VEC3"
		},
		{
			"bufferView":19,
			"componentType":5126,
			"count":313,
			"type":"VEC3"
		},
		{
			"bufferView":20,
			"componentType":5126,
			"count":313,
			"type":"VEC2"
		},
		{
			"bufferView":21,
			"componentType":5123,
			"count":939,
			"type":"SCALAR"
		}
	],
	"bufferViews":[
		{
			"buffer":0,
			"byteLength":288,
			"byteOffset":0,
			"target":34962
		},
		{
			"buffer":0,
			"byteLength":288,
			"byteOffset":288,
			"target":34962
		},
		{
			"buffer":0,
			"byteLength":192,
			"byteOffset":576,
			"target":34962
		},
		{
			"buffer":0,
			"byteLength":72,
			"byteOffset":768,
			"target":34963
		},
		{
			"buffer":0,
			"byteLength":2748,
			"byteOffset":840,
			"target":34962
		},
		{
			"buffer":0,
			"byteLength":2748,
			"byteOffset":3588,
			"target":34962
		},
		{
			"buffer":0,
			"byteLength":1832,
			"byteOffset":6336,
			"target":34962
		},
		{
			"buffer":0,
			"byteLength":1338,
			"byteOffset":8168,
			"target":34963
		},
		{
			"buffer":0,
			"byteLength":288,
			"byteOffset":9508,
			"target":34962
		},
		{
			"buffer":0,
			"byteLength":288,
			"byteOffset":9796,
			"target":34962
		},
		{
			"buffer":0,
			"byteLength":192,
			"byteOffset":10084,
			"target":34962
		},
		{
			"buffer":0,
			"byteLength":2988,
			"byteOffset":10276,
			"target":34962
		},
		{
			"buffer":0,
			"byteLength":2988,
			"byteOffset":13264,
			"target":34962
		},
		{
			"buffer":0,
			"byteLength":1992,
			"byteOffset":16252,
			"target":34962
		},
		{
			"buffer":0,
			"byteLength":1446,
			"byteOffset":18244,
			"target":34963
		},
		{
			"buffer":0,
			"byteLength":288,
			"byteOffset":19692,
			"target":34962
		},
		{
			"buffer":0,
			"byteLength":288,
			"byteOffset":19980,
			"target":34962
		},
		{
			"buffer":0,
			"byteLength":192,
			"byteOffset":20268,
			"target":34962
		},
		{
			"buffer":0,
			"byteLength":3756,
			"byteOffset":20460,
			"target":34962
		},
		{
			"buffer":0,
			"byteLength":3756,
			"byteOffset":24216,
			"target":34962
		},
		{
			"buffer":0,
			"byteLength":2504,
			"byteOffset":27972,
			"target":34962
		},
		{
			"buffer":0,
			"byteLength":1878,
			"byteOffset":30476,
			"target":34963
		}
	],
	"buffers":[
		{
			"byteLength":32356,
			"uri":"data:application/octet-stream;base64,"
		}
	]
}
