{
	"asset":{
		"generator":"Khronos glTF Blender I/O v3.6.27",
		"version":"2.0"
	},
	"scene":0,
	"scenes":[
		{
			"name":"Scene",
			"nodes":[
				0
			]
		}
	],
	"nodes":[
		{
			"mesh":0,
			"name":"Torus.001_clors_0.008",
			"rotation":[
				0,
				-0.7071066498756409,
				0,
				0.7071069478988647
			],
			"scale":[
				0.03863505274057388,
				0.03863506019115448,
				0.03863505274057388
			],
			"translation":[
				5.431593418121338,
				1.8848358392715454,
				0.08998499065637589
			]
		}
	],
	"materials":[
		{
			"doubleSided":true,
			"name":"clors.001",
			"pbrMetallicRoughness":{
				"baseColorTexture":{
					"index":0
				},
				"metallicFactor":0,
				"roughnessFactor":0.8211145401000977
			}
		},
		{
			"doubleSided":true,
			"name":"glass.001",
			"pbrMetallicRoughness":{
				"baseColorTexture":{
					"index":1
				},
				"metallicFactor":0,
				"roughnessFactor":0.8123833537101746
			}
		}
	],
	"meshes":[
		{
			"name":"Torus.001_clors_0.008",
			"primitives":[
				{
					"attributes":{
						"POSITION":0,
						"NORMAL":1,
						"TEXCOORD_0":2
					},
					"indices":3,
					"material":0
				},
				{
					"attributes":{
						"POSITION":4,
						"NORMAL":5,
						"TEXCOORD_0":6
					},
					"indices":7,
					"material":1
				}
			]
		}
	],
	"textures":[
		{
			"sampler":0,
			"source":0
		},
		{
			"sampler":0,
			"source":0
		}
	],
	"images":[
		{
			"bufferView":4,
			"mimeType":"image/png",
			"name":"Image_0"
		}
	],
	"accessors":[
		{
			"bufferView":0,
			"componentType":5126,
			"count":160,
			"max":[
				4.424446105957031,
				8.849563598632812,
				4.42422342300415
			],
			"min":[
				-4.42413330078125,
				-14.032856941223145,
				-4.4243597984313965
			],
			"type":"VEC3"
		},
		{
			"bufferView":1,
			"componentType":5126,
			"count":160,
			"type":"VEC3"
		},
		{
			"bufferView":2,
			"componentType":5126,
			"count":160,
			"type":"VEC2"
		},
		{
			"bufferView":3,
			"componentType":5123,
			"count":552,
			"type":"SCALAR"
		},
		{
			"bufferView":5,
			"componentType":5126,
			"count":640,
			"max":[
				4.720802307128906,
				8.516712188720703,
				4.7206597328186035
			],
			"min":[
				-4.720527648925781,
				-14.28005599975586,
				-4.720672130584717
			],
			"type":"VEC3"
		},
		{
			"bufferView":6,
			"componentType":5126,
			"count":640,
			"type":"VEC3"
		},
		{
			"bufferView":7,
			"componentType":5126,
			"count":640,
			"type":"VEC2"
		},
		{
			"bufferView":8,
			"componentType":5123,
			"count":2460,
			"type":"SCALAR"
		}
	],
	"bufferViews":[
		{
			"buffer":0,
			"byteLength":1920,
			"byteOffset":0,
			"target":34962
		},
		{
			"buffer":0,
			"byteLength":1920,
			"byteOffset":1920,
			"target":34962
		},
		{
			"buffer":0,
			"byteLength":1280,
			"byteOffset":3840,
			"target":34962
		},
		{
			"buffer":0,
			"byteLength":1104,
			"byteOffset":5120,
			"target":34963
		},
		{
			"buffer":0,
			"byteLength":1225,
			"byteOffset":6224
		},
		{
			"buffer":0,
			"byteLength":7680,
			"byteOffset":7452,
			"target":34962
		},
		{
			"buffer":0,
			"byteLength":7680,
			"byteOffset":15132,
			"target":34962
		},
		{
			"buffer":0,
			"byteLength":5120,
			"byteOffset":22812,
			"target":34962
		},
		{
			"buffer":0,
			"byteLength":4920,
			"byteOffset":27932,
			"target":34963
		}
	],
	"samplers":[
		{
			"magFilter":9729,
			"minFilter":9987
		}
	],
	"buffers":[
		{
			"byteLength":32852,
			"uri":"data:application/octet-stream;base64,"
		}
	]
}
